<mxfile host="app.diagrams.net" modified="2024-01-18T16:18:24.648Z" agent="Mozilla/5.0 (Macintosh; Intel Mac OS X 10_15_7) AppleWebKit/537.36 (KHTML, like Gecko) Chrome/120.0.0.0 Safari/537.36" version="22.1.21" etag="lnOWkWeIJ7gLcGdqumzn" type="github">
  <diagram name="PÃ¡gina-1" id="6_BFkbK4sUHV9Cz7KEiL">
    <mxGraphModel>
      <root>
        <mxCell id="0" />
        <mxCell id="1" parent="0" />
      </root>
    </mxGraphModel>
  </diagram>
</mxfile>
